<?xml version="1.0" encoding="UTF-8"?>
<svg width="207px" height="71px" viewBox="0 0 207 71" version="1.1" xmlns="http://www.w3.org/2000/svg" xmlns:xlink="http://www.w3.org/1999/xlink">
    <title>ntr</title>
    <g id="Page-1" stroke="none" stroke-width="1" fill="none" fill-rule="evenodd">
        <g id="Artboard" transform="translate(-145.000000, -210.000000)" fill="#FFE81F" fill-rule="nonzero">
            <path d="M168.878906,281 L168.878906,254.632812 L189.875,281 L212.824219,281 L212.824219,210.492188 L189.875,210.492188 L189.875,236.859375 L168.878906,210.492188 L145.929688,210.492188 L145.929688,281 L168.878906,281 Z M165.949219,278.070312 L148.859375,278.070312 L148.859375,213.421875 L167.658203,213.421875 L188.166016,239.691406 L192.804688,239.691406 L192.804688,213.421875 L209.894531,213.421875 L209.894531,278.070312 L191.583984,278.070312 L170.587891,251.703125 L165.949219,251.703125 L165.949219,278.070312 Z M255.753906,281 L255.753906,231.488281 L275.1875,231.488281 L275.1875,210.492188 L213.371094,210.492188 L213.371094,231.488281 L232.804688,231.488281 L232.804688,281 L255.753906,281 Z M252.824219,278.070312 L235.734375,278.070312 L235.734375,228.558594 L216.300781,228.558594 L216.300781,213.421875 L272.257812,213.421875 L272.257812,228.558594 L252.824219,228.558594 L252.824219,278.070312 Z M304.152344,281 L304.152344,257.708984 L326.515625,281 L351.417969,281 L351.417969,260.003906 L333.253906,260.003906 L327.980469,253.265625 C333.449219,251.963542 337.648438,250.173177 340.578125,247.894531 C343.507812,245.615885 345.57487,242.669922 346.779297,239.056641 C347.983724,235.443359 348.325521,232.106771 347.804688,229.046875 C347.283854,225.986979 346.404948,223.399089 345.167969,221.283203 C343.93099,219.167318 341.603516,216.970052 338.185547,214.691406 C334.767578,212.41276 330.226562,211.013021 324.5625,210.492188 L324.5625,210.492188 L278.664062,210.492188 L278.664062,281 L304.152344,281 Z M301.222656,278.070312 L281.59375,278.070312 L281.59375,213.421875 L324.5625,213.421875 C329.575521,213.877604 333.628255,215.147135 336.720703,217.230469 C339.813151,219.313802 341.87207,221.242513 342.897461,223.016602 C343.922852,224.79069 344.622721,227.028646 344.99707,229.730469 C345.371419,232.432292 345.045898,235.264323 344.020508,238.226562 C342.995117,241.188802 341.253581,243.695312 338.795898,245.746094 C336.338216,247.796875 331.75651,249.505859 325.050781,250.873047 L325.050781,250.873047 L325.050781,254.974609 L331.544922,262.933594 L348.488281,262.933594 L348.488281,278.070312 L328.224609,278.070312 L305.958984,254.779297 L301.222656,254.779297 L301.222656,278.070312 Z M322.707031,242.328125 C323.748698,242.328125 324.879883,241.904948 326.100586,241.058594 C327.321289,240.21224 327.996745,238.11263 328.126953,234.759766 C327.899089,231.537109 327.150391,229.413086 325.880859,228.387695 C324.611328,227.362305 323.537109,226.849609 322.658203,226.849609 L322.658203,226.849609 L302.931641,226.849609 L302.931641,242.328125 L322.707031,242.328125 Z M321.046875,239.642578 L305.958984,239.642578 L305.958984,229.681641 L320.998047,229.681641 C321.649089,229.681641 322.471029,230.015299 323.463867,230.682617 C324.456706,231.349935 325.034505,232.692708 325.197266,234.710938 C325.132161,236.924479 324.619466,238.299805 323.65918,238.836914 C322.698893,239.374023 321.828125,239.642578 321.046875,239.642578 L321.046875,239.642578 Z" id="ntr"></path>
        </g>
    </g>
</svg>