<?xml version="1.0" encoding="UTF-8"?>
<svg width="200px" height="71px" viewBox="0 0 200 71" version="1.1" xmlns="http://www.w3.org/2000/svg" xmlns:xlink="http://www.w3.org/1999/xlink">
    <title>tne</title>
    <g id="Page-1" stroke="none" stroke-width="1" fill="none" fill-rule="evenodd">
        <g id="Artboard" transform="translate(-147.000000, -41.000000)" fill="#FFE81F" fill-rule="nonzero">
            <path d="M189.382812,112 L189.382812,62.4882812 L208.816406,62.4882812 L208.816406,41.4921875 L147,41.4921875 L147,62.4882812 L166.433594,62.4882812 L166.433594,112 L189.382812,112 Z M186.453125,109.070312 L169.363281,109.070312 L169.363281,59.5585938 L149.929688,59.5585938 L149.929688,44.421875 L205.886719,44.421875 L205.886719,59.5585938 L186.453125,59.5585938 L186.453125,109.070312 Z M235.242188,112 L235.242188,85.6328125 L256.238281,112 L279.1875,112 L279.1875,41.4921875 L256.238281,41.4921875 L256.238281,67.859375 L235.242188,41.4921875 L212.292969,41.4921875 L212.292969,112 L235.242188,112 Z M232.3125,109.070312 L215.222656,109.070312 L215.222656,44.421875 L234.021484,44.421875 L254.529297,70.6914062 L259.167969,70.6914062 L259.167969,44.421875 L276.257812,44.421875 L276.257812,109.070312 L257.947266,109.070312 L236.951172,82.703125 L232.3125,82.703125 L232.3125,109.070312 Z M346.140625,112 L346.140625,91.0039062 L305.613281,91.0039062 L305.613281,82.8984375 L329.832031,82.8984375 L329.832031,70.59375 L305.613281,70.59375 L305.613281,62.4882812 L343.113281,62.4882812 L343.113281,41.4921875 L282.664062,41.4921875 L282.664062,112 L346.140625,112 Z M343.210938,109.070312 L285.59375,109.070312 L285.59375,44.421875 L340.183594,44.421875 L340.183594,59.5585938 L302.683594,59.5585938 L302.683594,73.5234375 L326.902344,73.5234375 L326.902344,80.0664062 L302.683594,80.0664062 L302.683594,93.9335938 L343.210938,93.9335938 L343.210938,109.070312 Z" id="tne"></path>
        </g>
    </g>
</svg>